<?xml version="1.0" encoding="UTF-8" standalone="no"?>
<!DOCTYPE svg PUBLIC "-//W3C//DTD SVG 1.1//EN" "http://www.w3.org/Graphics/SVG/1.1/DTD/svg11.dtd">
<svg width="100%" height="100%" viewBox="0 0 32 32" version="1.1" xmlns="http://www.w3.org/2000/svg" xmlns:xlink="http://www.w3.org/1999/xlink" xml:space="preserve" xmlns:serif="http://www.serif.com/" style="fill-rule:evenodd;clip-rule:evenodd;stroke-linejoin:round;stroke-miterlimit:2;">
    <path d="M17.45,5.845L30,12L29,14L23.018,11.628C24,13 24,14.132 24,15.5C24,21.005 19.6,25.515 14.252,25.963L13.556,26.707L12.755,25.981C7.31,25.656 3,21.091 3,15.5C2.999,9.697 7.641,5 13.376,5C14.816,5 16.198,5.302 17.451,5.845" style="fill:rgb(255,208,254);fill-rule:nonzero;"/>
    <path d="M13.504,25C18.752,25 23,20.517 23,15L4,15C4,20.517 8.257,25 13.505,25" style="fill:rgb(108,250,89);fill-rule:nonzero;"/>
    <path d="M9,18C9.549,18 10,17.549 10,17C10,16.451 9.549,16 9,16C8.451,16 8,16.451 8,17C8,17.549 8.451,18 9,18M13,19C13.549,19 14,18.549 14,18C14,17.451 13.549,17 13,17C12.451,17 12,17.451 12,18C12,18.549 12.451,19 13,19M12,23C12,23.549 11.549,24 11,24C10.451,24 10,23.549 10,23C10,22.451 10.451,22 11,22C11.549,22 12,22.451 12,23" style="fill:rgb(211,240,147);fill-rule:nonzero;"/>
    <path d="M18.293,11.293C18.681,10.905 19.319,10.905 19.707,11.293C20.727,12.313 21.121,14.007 21.187,15.519C21.254,17.069 20.993,18.75 20.394,19.947C20.231,20.3 19.875,20.528 19.486,20.528C18.938,20.528 18.486,20.076 18.486,19.528C18.486,19.362 18.527,19.199 18.606,19.053C19.007,18.25 19.246,16.932 19.188,15.606C19.129,14.243 18.772,13.186 18.293,12.707C17.905,12.319 17.905,11.681 18.293,11.293" style="fill:white;fill-rule:nonzero;"/>
    <path d="M3,19.75C3,19.339 3.339,19 3.75,19L23.25,19C23.661,19 24,19.339 24,19.75C24,20.161 23.661,20.5 23.25,20.5L18.793,20.5L24.856,28.808C24.95,28.936 25,29.091 25,29.25C25,29.661 24.661,30 24.25,30C24.011,30 23.785,29.885 23.644,29.692L16.936,20.5L10.064,20.5L3.356,29.692C3.215,29.885 2.989,30 2.75,30C2.339,30 2,29.661 2,29.25C2,29.091 2.05,28.936 2.144,28.808L8.207,20.5L3.749,20.5C3.338,20.5 2.999,20.161 2.999,19.75" style="fill:rgb(99,89,148);fill-rule:nonzero;"/>
    <path d="M12.75,29.25L12.75,25.981C13.25,26.011 13.751,26.005 14.25,25.963L14.25,29.25C14.25,29.661 13.911,30 13.5,30C13.089,30 12.75,29.661 12.75,29.25" style="fill:rgb(99,89,148);fill-rule:nonzero;"/>
</svg>
