<?xml version="1.0" encoding="UTF-8" standalone="no"?>
<!DOCTYPE svg PUBLIC "-//W3C//DTD SVG 1.1//EN" "http://www.w3.org/Graphics/SVG/1.1/DTD/svg11.dtd">
<svg width="100%" height="100%" viewBox="0 0 32 32" version="1.1" xmlns="http://www.w3.org/2000/svg" xmlns:xlink="http://www.w3.org/1999/xlink" xml:space="preserve" xmlns:serif="http://www.serif.com/" style="fill-rule:evenodd;clip-rule:evenodd;stroke-linejoin:round;stroke-miterlimit:2;">
    <path d="M17.651,22.27L13.761,22.27C12.971,22.27 12.321,22.91 12.331,23.7L12.331,27.59C12.331,28.38 12.971,29.02 13.761,29.02L14.009,29.02C14.352,29.631 15,30.011 15.701,30.011C16.402,30.011 17.05,29.631 17.393,29.02L17.651,29.02C18.441,29.02 19.081,28.38 19.081,27.59L19.081,23.7C19.081,22.91 18.441,22.27 17.651,22.27" style="fill:rgb(155,155,155);fill-rule:nonzero;"/>
    <path d="M18.161,23.13C18.401,23.13 18.591,22.95 18.611,22.72C18.681,21.86 19.051,19.77 21.071,17.53C23.02,15.996 24.219,13.696 24.361,11.22C24.381,10.98 24.391,10.82 24.391,10.72L24.391,10.62C24.331,5.84 20.461,2 15.691,2C10.958,2 7.05,5.867 7.001,10.6C6.952,15.333 6.991,10.84 7.031,11.24C7.191,13.78 8.431,16.03 10.321,17.52C12.341,19.77 12.741,21.86 12.811,22.72C12.831,22.95 13.021,23.13 13.261,23.13L18.161,23.13Z" style="fill:rgb(63,181,252);fill-rule:nonzero;"/>
    <path d="M15.701,10.7C17.321,10.7 18.641,12.01 18.661,13.63L18.661,13.71C18.661,13.74 18.661,13.78 18.651,13.84C18.601,14.68 18.191,15.47 17.531,15.99L17.461,16.04L17.401,16.1C16.301,17.32 16.071,20.42 16.031,22.12L15.381,22.12C15.331,20.42 15.091,17.32 13.991,16.1L13.931,16.04L13.861,15.99C13.193,15.462 12.785,14.67 12.741,13.82C12.741,13.78 12.731,13.75 12.731,13.73L12.731,13.64C12.761,12.02 14.091,10.7 15.701,10.7M15.701,9.7C13.529,9.701 11.742,11.488 11.742,13.66C11.742,14.872 12.299,16.02 13.251,16.77C14.451,18.11 14.391,23.13 14.391,23.13L17.031,23.13C17.031,23.13 16.951,18.11 18.161,16.78C19.021,16.1 19.591,15.07 19.661,13.9C19.671,13.79 19.671,13.72 19.671,13.67L19.671,13.63C19.649,11.467 17.864,9.7 15.701,9.7" style="fill:rgb(255,248,33);fill-rule:nonzero;"/>
    <path d="M19.167,25.053C19.406,25.011 19.581,24.802 19.581,24.56C19.581,24.285 19.356,24.06 19.081,24.06C19.052,24.06 19.023,24.062 18.995,24.067L12.255,25.247C12.016,25.289 11.841,25.498 11.841,25.74C11.841,26.015 12.066,26.24 12.341,26.24C12.37,26.24 12.399,26.238 12.427,26.233L19.167,25.053ZM19.117,27.203C19.352,27.159 19.524,26.951 19.524,26.712C19.524,26.437 19.298,26.212 19.024,26.212C18.998,26.212 18.971,26.214 18.945,26.218L12.295,27.388C12.047,27.421 11.861,27.634 11.861,27.884C11.861,28.158 12.086,28.384 12.361,28.384C12.397,28.384 12.433,28.38 12.468,28.372L19.117,27.203Z" style="fill:rgb(211,211,211);fill-rule:nonzero;"/>
    <path d="M13.791,5.44C12.681,7.36 13.241,9.76 15.041,10.79C16.841,11.82 19.191,11.11 20.301,9.19C21.411,7.27 20.851,4.87 19.051,3.84C17.251,2.81 14.901,3.52 13.791,5.44" style="fill:rgb(176,246,255);fill-rule:nonzero;"/>
</svg>
