<?xml version="1.0" encoding="UTF-8" standalone="no"?>
<!DOCTYPE svg PUBLIC "-//W3C//DTD SVG 1.1//EN" "http://www.w3.org/Graphics/SVG/1.1/DTD/svg11.dtd">
<svg width="100%" height="100%" viewBox="0 0 33 33" version="1.1" xmlns="http://www.w3.org/2000/svg" xmlns:xlink="http://www.w3.org/1999/xlink" xml:space="preserve" xmlns:serif="http://www.serif.com/" style="fill-rule:evenodd;clip-rule:evenodd;stroke-linejoin:round;stroke-miterlimit:2;">
    <path d="M16.633,2.088C9.605,2.088 3.919,7.774 3.919,14.802C3.919,20.989 8.354,26.129 14.207,27.273L14.207,30.913C21.816,29.765 28.553,23.726 29.055,15.796C29.358,11.024 26.979,6.152 22.965,3.786C22.499,3.506 22.013,3.263 21.51,3.058L21.267,2.961C21.044,2.878 20.819,2.786 20.587,2.718C19.311,2.299 17.976,2.086 16.633,2.088M19.253,6.795C18.794,6.745 18.338,6.927 18.04,7.28C17.807,7.59 17.661,7.891 17.506,8.202C17.04,9.289 17.196,10.454 17.894,11.308C18.981,11.075 19.904,10.381 20.369,9.294C20.523,8.976 20.606,8.628 20.612,8.274C20.66,7.45 19.978,6.869 19.253,6.794L19.253,6.795ZM13.599,6.868C12.891,6.935 12.217,7.498 12.217,8.275C12.217,8.585 12.304,8.983 12.46,9.294C12.926,10.381 13.92,11.074 15.006,11.308C15.627,10.454 15.788,9.289 15.322,8.202C15.167,7.892 15.022,7.586 14.788,7.352C14.498,7.003 14.052,6.821 13.6,6.868L13.599,6.868ZM9.79,10.603C8.566,10.666 8.02,12.205 9.038,13.005C9.348,13.238 9.65,13.408 9.96,13.563C11.047,14.029 12.304,13.869 13.235,13.248C13.002,12.238 12.212,11.312 11.125,10.846C10.737,10.691 10.422,10.603 10.033,10.603C9.946,10.593 9.872,10.599 9.79,10.603M21.751,15.31C21.037,15.297 20.335,15.501 19.738,15.893C19.971,16.902 20.761,17.828 21.848,18.294C22.237,18.449 22.553,18.537 22.941,18.537C24.338,18.615 25.021,16.887 23.935,16.111C23.625,15.878 23.324,15.732 23.013,15.577C22.613,15.408 22.185,15.318 21.751,15.31M11.148,15.383C10.714,15.391 10.286,15.481 9.887,15.65C9.498,15.805 9.197,15.975 8.964,16.208C7.955,17.062 8.634,18.688 10.032,18.61C10.41,18.613 10.783,18.529 11.124,18.367C12.211,17.901 12.983,16.975 13.138,15.966C12.55,15.573 11.855,15.37 11.148,15.383M15.079,17.761C13.992,17.994 13.07,18.688 12.604,19.775C12.449,20.085 12.361,20.459 12.361,20.769C12.284,22.089 14.085,22.799 14.861,21.789C15.094,21.479 15.239,21.177 15.395,20.866C15.861,19.857 15.701,18.692 15.079,17.761M17.966,17.834C17.345,18.688 17.185,19.852 17.651,20.939C17.806,21.25 17.951,21.555 18.185,21.789C19.039,22.719 20.835,22.031 20.757,20.866C20.757,20.556 20.669,20.158 20.514,19.847C20.048,18.76 19.054,18.067 17.967,17.834L17.966,17.834Z" style="fill:rgb(169,208,142);"/>
</svg>
