<?xml version="1.0" encoding="UTF-8" standalone="no"?>
<!DOCTYPE svg PUBLIC "-//W3C//DTD SVG 1.1//EN" "http://www.w3.org/Graphics/SVG/1.1/DTD/svg11.dtd">
<svg width="100%" height="100%" viewBox="0 0 36 36" version="1.1" xmlns="http://www.w3.org/2000/svg" xmlns:xlink="http://www.w3.org/1999/xlink" xml:space="preserve" xmlns:serif="http://www.serif.com/" style="fill-rule:evenodd;clip-rule:evenodd;stroke-linejoin:round;stroke-miterlimit:2;">
    <path d="M32.415,9.586L23.415,0.586C23.043,0.232 22.549,0.034 22.035,0.034C20.937,0.034 20.034,0.937 20.034,2.035C20.034,2.549 20.232,3.043 20.586,3.415L16.727,7.274L25.727,16.274L29.586,12.415C29.961,12.79 30.47,13.001 31,13.001C32.098,13.001 33.001,12.098 33.001,11C33.001,10.47 32.79,9.961 32.415,9.586" style="fill:rgb(225,232,237);fill-opacity:0.6;fill-rule:nonzero;"/>
    <path d="M22,0L7,0C4.806,0 3,1.806 3,4L3,32C3,34.194 4.806,36 7,36L29,36C31.194,36 33,34.194 33,32L33,11L24,11C23,11 22,10 22,9L22,0Z" style="fill:rgb(204,214,221);fill-opacity:0.6;fill-rule:nonzero;"/>
    <path d="M22,0L20,0L20,9C20,11.194 21.806,13 24,13L33,13L33,11L24,11C23,11 22,10 22,9L22,0ZM17,8C17,8.549 16.549,9 16,9L8,9C7.451,9 7,8.549 7,8C7,7.451 7.451,7 8,7L16,7C16.549,7 17,7.451 17,8M17,12C17,12.549 16.549,13 16,13L8,13C7.451,13 7,12.549 7,12C7,11.451 7.451,11 8,11L16,11C16.549,11 17,11.451 17,12M29,16C29,16.549 28.549,17 28,17L8,17C7.451,17 7,16.549 7,16C7,15.451 7.451,15 8,15L28,15C28.549,15 29,15.451 29,16M29,20C29,20.549 28.549,21 28,21L8,21C7.451,21 7,20.549 7,20C7,19.451 7.451,19 8,19L28,19C28.549,19 29,19.451 29,20M29,24C29,24.549 28.549,25 28,25L8,25C7.451,25 7,24.549 7,24C7,23.451 7.451,23 8,23L28,23C28.549,23 29,23.451 29,24M29,28C29,28.549 28.549,29 28,29L8,29C7.451,29 7,28.549 7,28C7,27.451 7.451,27 8,27L28,27C28.549,27 29,27.451 29,28" style="fill:rgb(153,170,181);fill-opacity:0.6;fill-rule:nonzero;"/>
</svg>
