<?xml version="1.0" encoding="UTF-8" standalone="no"?>
<!DOCTYPE svg PUBLIC "-//W3C//DTD SVG 1.1//EN" "http://www.w3.org/Graphics/SVG/1.1/DTD/svg11.dtd">
<svg width="100%" height="100%" viewBox="0 0 36 36" version="1.1" xmlns="http://www.w3.org/2000/svg" xmlns:xlink="http://www.w3.org/1999/xlink" xml:space="preserve" xmlns:serif="http://www.serif.com/" style="fill-rule:evenodd;clip-rule:evenodd;stroke-linejoin:round;stroke-miterlimit:2;">
    <path d="M0,29C0,31.194 1.806,33 4,33L28,33C30.194,33 32,31.194 32,29L32,12C32,9.806 30.194,8 28,8L19,8C15.438,8 16,3 10.562,3L4,3C1.806,3 -0,4.806 0,7L0,29Z" style="fill:rgb(46,67,81);fill-rule:nonzero;"/>
    <path d="M30,10L23.438,10C18,10 18.562,15 15,15L6,15C3.806,15 2,16.806 2,19L2,29C2,29.549 1.549,30 1,30C0.451,30 0,29.549 0,29C0,31.194 1.806,33 4,33L30,33C32.194,33 34,31.194 34,29L34,14C34,11.806 32.194,10 30,10" style="fill:rgb(68,100,120);fill-rule:nonzero;"/>
</svg>
