<?xml version="1.0" encoding="UTF-8" standalone="no"?>
<!DOCTYPE svg PUBLIC "-//W3C//DTD SVG 1.1//EN" "http://www.w3.org/Graphics/SVG/1.1/DTD/svg11.dtd">
<svg width="100%" height="100%" viewBox="0 0 36 36" version="1.1" xmlns="http://www.w3.org/2000/svg" xmlns:xlink="http://www.w3.org/1999/xlink" xml:space="preserve" xmlns:serif="http://www.serif.com/" style="fill-rule:evenodd;clip-rule:evenodd;stroke-linejoin:round;stroke-miterlimit:2;">
    <path d="M0,29C0,31.194 1.806,33 4,33L28,33C30.194,33 32,31.194 32,29L32,12C32,9.806 30.194,8 28,8L19,8C15.438,8 16,3 10.562,3L4,3C1.806,3 -0,4.806 0,7L0,29Z" style="fill:rgb(24,66,92);fill-rule:nonzero;"/>
    <path d="M32.336,12L25.774,12C20.336,12 20.391,17 16.829,17L7.829,17C5.62,17 3.647,18.791 3.423,21L2.93,24.874L2.406,29L2.386,28.998C2.27,29.605 1.714,29.997 1.086,29.997C0.443,29.997 -0.02,29.49 0.012,28.853C0.01,28.903 0,28.95 0,29C0.004,30.964 1.457,32.649 3.4,32.939C3.577,32.977 3.771,33 4,33L30,33C32.209,33 34.182,31.209 34.406,29L35.929,16C36.154,13.791 34.545,12 32.336,12" style="fill:rgb(78,116,139);fill-rule:nonzero;"/>
</svg>
