<?xml version="1.0" encoding="UTF-8" standalone="no"?>
<!DOCTYPE svg PUBLIC "-//W3C//DTD SVG 1.1//EN" "http://www.w3.org/Graphics/SVG/1.1/DTD/svg11.dtd">
<svg width="100%" height="100%" viewBox="0 0 32 32" version="1.1" xmlns="http://www.w3.org/2000/svg" xmlns:xlink="http://www.w3.org/1999/xlink" xml:space="preserve" xmlns:serif="http://www.serif.com/" style="fill-rule:evenodd;clip-rule:evenodd;stroke-linejoin:round;stroke-miterlimit:2;">
    <path d="M14.581,10.341L19.519,12.491L21.652,17.412L18.395,23.928C17.768,25.182 16.641,26.117 15.292,26.501L3.68,29.806C3.573,29.837 3.462,29.852 3.35,29.852C2.69,29.852 2.147,29.309 2.147,28.649C2.147,28.538 2.163,28.427 2.193,28.32L5.493,16.704C5.877,15.354 6.811,14.226 8.067,13.598L14.581,10.341Z" style="fill:rgb(211,211,211);fill-rule:nonzero;"/>
    <path d="M18.121,2.565C18.496,2.19 19.005,1.979 19.536,1.979C20.066,1.979 20.575,2.19 20.95,2.565L29.435,11.05C29.81,11.425 30.021,11.934 30.021,12.464C30.021,12.995 29.81,13.504 29.435,13.879L25.9,17.414L18.997,12.918L14.586,6.1L18.121,2.565Z" style="fill:rgb(11,110,208);fill-rule:nonzero;"/>
    <path d="M14.586,6.1L25.9,17.415C25.338,17.978 24.574,18.294 23.778,18.294C22.983,18.294 22.219,17.978 21.657,17.415L14.586,10.345C14.023,9.783 13.707,9.019 13.707,8.223C13.707,7.428 14.023,6.664 14.586,6.102" style="fill:rgb(255,176,46);fill-rule:nonzero;"/>
    <path d="M11.171,22.243C11.574,22.435 12.015,22.535 12.462,22.535C14.108,22.535 15.463,21.18 15.463,19.534C15.463,18.739 15.147,17.976 14.586,17.414C14.023,16.849 13.258,16.532 12.461,16.532C10.815,16.532 9.461,17.886 9.461,19.532C9.461,19.981 9.562,20.424 9.756,20.829L2.436,28.149C2.248,28.337 2.143,28.591 2.143,28.857C2.143,29.405 2.594,29.857 3.143,29.857C3.408,29.857 3.663,29.751 3.85,29.564L11.171,22.243Z" style="fill:rgb(11,110,208);fill-rule:nonzero;"/>
</svg>
