<?xml version="1.0" encoding="UTF-8" standalone="no"?>
<!DOCTYPE svg PUBLIC "-//W3C//DTD SVG 1.1//EN" "http://www.w3.org/Graphics/SVG/1.1/DTD/svg11.dtd">
<svg width="100%" height="100%" viewBox="0 0 32 32" version="1.1" xmlns="http://www.w3.org/2000/svg" xmlns:xlink="http://www.w3.org/1999/xlink" xml:space="preserve" xmlns:serif="http://www.serif.com/" style="fill-rule:evenodd;clip-rule:evenodd;stroke-linejoin:round;stroke-miterlimit:2;">
    <path d="M2,2L16,5L30,2L30,30L16,27L2,30L2,2Z" style="fill:rgb(150,208,11);fill-rule:nonzero;"/>
    <path d="M30,2L2,2L16,16L30,2Z" style="fill:rgb(207,243,97);fill-rule:nonzero;"/>
    <path d="M30,30L2,30L16,16L30,30Z" style="fill:rgb(40,185,58);fill-rule:nonzero;"/>
    <path d="M5,5L27,5L27,9.164L18,22L5,19L5,16L6.5,13L5,10L5,5Z" style="fill:rgb(174,221,255);fill-rule:nonzero;"/>
    <path d="M24.667,10.114C25.236,9.41 26.095,9 27,9L27,15C26.258,15 25.542,14.725 24.991,14.228C24.872,15.783 23.559,17 22,17C20.354,17 19,15.645 19,14C19,12.354 20.354,11 22,11C22.087,11 22.174,11.003 22.261,11.011C22.738,10.172 23.757,9.792 24.667,10.114M5,16L5,10C5.981,10 6.853,10.471 7.4,11.2C7.573,11.07 7.784,11 8,11C8.549,11 9,11.451 9,12C10.097,12 11,12.903 11,14C11,15.097 10.097,16 9,16L5,16Z" style="fill:white;fill-rule:nonzero;"/>
    <path d="M8,17.5L5,19L5,27L27,27L27,12C25.5,12 24.5,12.5 23,14L18.5,18.5C17.5,19.5 17,20 16,19.5L12,17.5C10.4,16.7 8.833,17 8,17.5" style="fill:rgb(183,183,96);fill-rule:nonzero;"/>
    <path d="M27,26.812L27,27L5,27L5,26.811C7.564,24.232 11.538,22.5 16,22.5C20.462,22.5 24.436,24.232 27,26.811" style="fill:rgb(189,195,74);fill-rule:nonzero;"/>
    <path d="M19.056,10.185C19.326,10.065 19.501,9.796 19.501,9.5C19.501,9.204 19.326,8.935 19.056,8.815C19.149,8.687 19.199,8.533 19.199,8.375C19.199,7.964 18.86,7.625 18.449,7.625C18.423,7.625 18.397,7.626 18.371,7.629C18.374,7.603 18.375,7.577 18.375,7.551C18.375,7.14 18.036,6.801 17.625,6.801C17.467,6.801 17.313,6.851 17.185,6.944C17.065,6.674 16.796,6.499 16.5,6.499C16.204,6.499 15.935,6.674 15.815,6.944C15.687,6.851 15.533,6.801 15.375,6.801C14.964,6.801 14.625,7.14 14.625,7.551C14.625,7.577 14.626,7.603 14.629,7.629C14.603,7.626 14.577,7.625 14.551,7.625C14.14,7.625 13.801,7.964 13.801,8.375C13.801,8.533 13.851,8.687 13.944,8.815C13.674,8.935 13.499,9.204 13.499,9.5C13.499,9.796 13.674,10.065 13.944,10.185C13.851,10.313 13.801,10.467 13.801,10.625C13.801,11.036 14.14,11.375 14.551,11.375C14.577,11.375 14.603,11.374 14.629,11.371C14.626,11.397 14.625,11.423 14.625,11.449C14.625,11.86 14.964,12.199 15.375,12.199C15.533,12.199 15.687,12.149 15.815,12.056C15.935,12.326 16.204,12.501 16.5,12.501C16.796,12.501 17.065,12.326 17.185,12.056C17.313,12.149 17.467,12.199 17.625,12.199C18.036,12.199 18.375,11.86 18.375,11.449C18.375,11.423 18.374,11.397 18.371,11.371C18.397,11.374 18.423,11.375 18.449,11.375C18.86,11.375 19.199,11.036 19.199,10.625C19.199,10.467 19.149,10.313 19.056,10.185" style="fill:rgb(255,130,45);fill-rule:nonzero;"/>
    <path d="M18.705,9.5C18.705,10.71 17.71,11.705 16.5,11.705C15.29,11.705 14.295,10.71 14.295,9.5C14.295,8.29 15.29,7.295 16.5,7.295C17.71,7.295 18.705,8.29 18.705,9.5" style="fill:rgb(249,194,60);fill-rule:nonzero;"/>
</svg>
