<?xml version="1.0" encoding="UTF-8" standalone="no"?>
<!DOCTYPE svg PUBLIC "-//W3C//DTD SVG 1.1//EN" "http://www.w3.org/Graphics/SVG/1.1/DTD/svg11.dtd">
<svg width="100%" height="100%" viewBox="0 0 32 32" version="1.1" xmlns="http://www.w3.org/2000/svg" xmlns:xlink="http://www.w3.org/1999/xlink" xml:space="preserve" xmlns:serif="http://www.serif.com/" style="fill-rule:evenodd;clip-rule:evenodd;stroke-linejoin:round;stroke-miterlimit:2;">
    <path d="M13,7.076C13,7.582 13.453,8 14,8C14.547,8 15,7.582 15,7.076L15,2.924C15,2.418 14.547,2 14,2C13.453,2 13,2.418 13,2.924L13,7.076ZM18,7.076C18,7.582 18.453,8 19,8C19.547,8 20,7.582 20,7.076L20,2.924C20,2.418 19.547,2 19,2C18.453,2 18,2.418 18,2.924L18,7.076Z" style="fill:rgb(243,173,97);fill-rule:nonzero;"/>
    <path d="M11.06,9.935C10.431,9.742 10,9.157 10,8.5C10,7.67 10.67,7 11.5,7L21.5,7C22.33,7 23,7.67 23,8.5C23,9.15 22.588,9.703 22.01,9.911L22.01,13.27C22.012,15.336 20.844,17.235 19,18.166L19,22.084C19,22.591 18.59,23 18.084,23L18,23L18,30L15,30L15,23C15,23 14.915,23 14.915,23C14.413,23 14,22.587 14,22.085C14,22.085 14,22.084 14,22.084L14,18.126C12.195,17.182 11.06,15.307 11.06,13.27L11.06,9.935Z" style="fill:rgb(11,110,208);fill-rule:nonzero;"/>
    <path d="M15,12L18,12C18.27,12 18.5,11.77 18.5,11.5C18.5,11.22 18.27,11 18,11L15,11C14.72,11 14.5,11.23 14.5,11.5C14.5,11.77 14.73,12 15,12M15,14L18,14C18.27,14 18.5,13.78 18.5,13.5C18.5,13.23 18.27,13 18,13L15,13C14.72,13 14.5,13.23 14.5,13.5C14.5,13.78 14.73,14 15,14" style="fill:rgb(199,144,241);fill-rule:nonzero;"/>
</svg>
