<?xml version="1.0" encoding="UTF-8" standalone="no"?>
<!DOCTYPE svg PUBLIC "-//W3C//DTD SVG 1.1//EN" "http://www.w3.org/Graphics/SVG/1.1/DTD/svg11.dtd">
<svg width="100%" height="100%" viewBox="0 0 32 32" version="1.1" xmlns="http://www.w3.org/2000/svg" xmlns:xlink="http://www.w3.org/1999/xlink" xml:space="preserve" xmlns:serif="http://www.serif.com/" style="fill-rule:evenodd;clip-rule:evenodd;stroke-linejoin:round;stroke-miterlimit:2;">
    <g transform="matrix(1,0,0,1,0.0242806,-0.781775)">
        <g transform="matrix(3.87206,0,0,3.87206,-66.2376,-27.186)">
            <path d="M24.528,11.25C24.528,13.033 23.061,14.5 21.278,14.5C19.495,14.5 18.028,13.033 18.028,11.25C18.028,9.467 19.495,8 21.278,8C23.061,8 24.528,9.467 24.528,11.25ZM23.528,11.25C23.528,10.016 22.512,9 21.278,9C20.044,9 19.028,10.016 19.028,11.25C19.028,12.484 20.044,13.5 21.278,13.5C22.512,13.5 23.528,12.484 23.528,11.25Z" style="fill:rgb(255,190,251);"/>
        </g>
        <g transform="matrix(3.87206,0,0,3.87206,-66.2376,-27.186)">
            <path d="M23.528,11.25C23.528,12.484 22.512,13.5 21.278,13.5C20.044,13.5 19.028,12.484 19.028,11.25C19.028,10.016 20.044,9 21.278,9C22.512,9 23.528,10.016 23.528,11.25" style="fill:white;fill-opacity:0.3;"/>
        </g>
    </g>
    <g transform="matrix(0.593217,0,0,0.593217,6.6849,5.69433)">
        <path d="M24,2L8,2C4.708,2 2,4.708 2,8L2,24C2,27.292 4.708,30 8,30L24,30C27.292,30 30,27.292 30,24L30,8C30,4.708 27.292,2 24,2M16,21.862C15.999,23.034 15.034,23.999 13.862,24L12.138,24C10.966,23.999 10.001,23.034 10,21.862L10,10.138C10.001,8.966 10.966,8.001 12.138,8L16,8L16,21.862ZM21,14C19.354,14 18,12.646 18,11C18,9.354 19.354,8 21,8C22.646,8 24,9.354 24,11C24,12.646 22.646,14 21,14" style="fill:rgb(239,83,80);fill-rule:nonzero;"/>
    </g>
    <g transform="matrix(3.87206,0,0,3.87206,-66.2133,-27.9678)">
        <g>
            <path d="M24.427,12.049C24.067,13.451 22.786,14.5 21.278,14.5C19.495,14.5 18.028,13.033 18.028,11.25C18.028,10.806 18.119,10.381 18.283,9.994L19.123,10.605C19.061,10.81 19.028,11.026 19.028,11.25C19.028,12.484 20.044,13.5 21.278,13.5C22.322,13.5 23.211,12.772 23.459,11.801L24.427,12.049Z" style="fill:rgb(255,190,251);"/>
        </g>
    </g>
</svg>
